<mxfile host="app.diagrams.net" agent="Mozilla/5.0 (Windows NT 10.0; Win64; x64) AppleWebKit/537.36 (KHTML, like Gecko) Chrome/135.0.0.0 Safari/537.36" version="26.2.14">
  <diagram name="Page-1" id="jhf09ls7IOTQYogmO61J">
    <mxGraphModel dx="2108" dy="1743" grid="1" gridSize="10" guides="1" tooltips="1" connect="1" arrows="1" fold="1" page="1" pageScale="1" pageWidth="827" pageHeight="1169" math="0" shadow="0">
      <root>
        <mxCell id="0" />
        <mxCell id="1" parent="0" />
        <mxCell id="uptyACYF9q1GfJ_68p10-1" value="" style="whiteSpace=wrap;html=1;aspect=fixed;" vertex="1" parent="1">
          <mxGeometry x="-30" y="-80" width="1170" height="1170" as="geometry" />
        </mxCell>
        <mxCell id="uptyACYF9q1GfJ_68p10-2" value="" style="ellipse;shape=cloud;whiteSpace=wrap;html=1;" vertex="1" parent="1">
          <mxGeometry x="840" y="38.25" width="120" height="80" as="geometry" />
        </mxCell>
        <mxCell id="uptyACYF9q1GfJ_68p10-4" value="Routeur" style="text;html=1;align=center;verticalAlign=middle;whiteSpace=wrap;rounded=0;" vertex="1" parent="1">
          <mxGeometry x="483.5" y="20" width="60" height="30" as="geometry" />
        </mxCell>
        <mxCell id="uptyACYF9q1GfJ_68p10-5" value="" style="verticalLabelPosition=bottom;sketch=0;aspect=fixed;html=1;verticalAlign=top;strokeColor=none;align=center;outlineConnect=0;shape=mxgraph.citrix.router;" vertex="1" parent="1">
          <mxGeometry x="488.5" y="56.75" width="55" height="36.5" as="geometry" />
        </mxCell>
        <mxCell id="uptyACYF9q1GfJ_68p10-6" value="" style="verticalLabelPosition=bottom;sketch=0;aspect=fixed;html=1;verticalAlign=top;strokeColor=none;align=center;outlineConnect=0;shape=mxgraph.citrix.switch;" vertex="1" parent="1">
          <mxGeometry x="470" y="230" width="92" height="41.5" as="geometry" />
        </mxCell>
        <mxCell id="uptyACYF9q1GfJ_68p10-7" value="Internet" style="text;html=1;align=center;verticalAlign=middle;whiteSpace=wrap;rounded=0;" vertex="1" parent="1">
          <mxGeometry x="870" y="63.25" width="60" height="30" as="geometry" />
        </mxCell>
      </root>
    </mxGraphModel>
  </diagram>
</mxfile>
